<?xml version="1.0" encoding="UTF-8" standalone="no"?>
<!-- Created with Inkscape (http://www.inkscape.org/) -->

<svg
   width="200"
   height="200"
   viewBox="0 0 52.916666 52.916666"
   version="1.1"
   id="svg8181"
   inkscape:version="1.1.2 (0a00cf5339, 2022-02-04, custom)"
   sodipodi:docname="exit.svg"
   xmlns:inkscape="http://www.inkscape.org/namespaces/inkscape"
   xmlns:sodipodi="http://sodipodi.sourceforge.net/DTD/sodipodi-0.dtd"
   xmlns="http://www.w3.org/2000/svg"
   xmlns:svg="http://www.w3.org/2000/svg">
  <sodipodi:namedview
     id="namedview8183"
     pagecolor="#ffffff"
     bordercolor="#666666"
     borderopacity="1.0"
     inkscape:pageshadow="2"
     inkscape:pageopacity="0.0"
     inkscape:pagecheckerboard="0"
     inkscape:document-units="mm"
     showgrid="false"
     units="px"
     inkscape:zoom="1.2894522"
     inkscape:cx="102.75681"
     inkscape:cy="141.92073"
     inkscape:window-width="1920"
     inkscape:window-height="1029"
     inkscape:window-x="0"
     inkscape:window-y="27"
     inkscape:window-maximized="1"
     inkscape:current-layer="layer1" />
  <defs
     id="defs8178">
    <marker
       style="overflow:visible"
       id="Arrow2Send-3-6"
       refX="0"
       refY="0"
       orient="auto"
       inkscape:stockid="Arrow2Send"
       inkscape:isstock="true">
      <path
         transform="matrix(-0.3,0,0,-0.3,0.69,0)"
         d="M 8.7185878,4.0337352 -2.2072895,0.01601326 8.7185884,-4.0017078 c -1.7454984,2.3720609 -1.7354408,5.6174519 -6e-7,8.035443 z"
         style="fill:context-stroke;fill-rule:evenodd;stroke:context-stroke;stroke-width:0.625;stroke-linejoin:round"
         id="path1619-3-2" />
    </marker>
    <marker
       style="overflow:visible"
       id="Arrow2Send-3-6-0"
       refX="0"
       refY="0"
       orient="auto"
       inkscape:stockid="Arrow2Send"
       inkscape:isstock="true">
      <path
         transform="matrix(-0.3,0,0,-0.3,0.69,0)"
         d="M 8.7185878,4.0337352 -2.2072895,0.01601326 8.7185884,-4.0017078 c -1.7454984,2.3720609 -1.7354408,5.6174519 -6e-7,8.035443 z"
         style="fill:context-stroke;fill-rule:evenodd;stroke:context-stroke;stroke-width:0.625;stroke-linejoin:round"
         id="path1619-3-2-7" />
    </marker>
  </defs>
  <g
     inkscape:label="Vrstva 1"
     inkscape:groupmode="layer"
     id="layer1">
    <path
       id="path3495"
       style="fill:#000000;stroke-width:0.464825"
       d="m 22.979655,12.446867 c -1.626891,0 -3.114287,0.743789 -4.090425,1.859373 l -5.18512,6.490267 h -6.2482291 -0.00969 v 4.12e-4 a 2.0538639,2.0539 0 0 0 -2.0440503,2.053546 2.0538639,2.0539 0 0 0 2.0537393,2.053934 2.0538639,2.0539 0 0 0 0.00969,-4.13e-4 v 4.13e-4 h 6.7288161 c 1.347998,0 2.603148,-0.650887 3.34687,-1.627024 l 2.974802,-3.625549 3.114328,7.808977 -10.040224,20.777882 h 3.951094 c 1.208547,0 2.23112,-0.650885 2.695944,-1.627024 l 8.180853,-16.966119 1.022799,9.575332 c 0.04648,1.115584 1.022455,1.952389 2.138037,1.952389 h 15.246468 l -0.976292,-2.510105 c -0.557791,-1.20855 -1.673341,-2.091721 -3.06782,-2.091721 H 33.949662 L 32.926863,25.647929 29.487169,17.095202 h 4.462493 l 2.742454,5.299067 c 0.371859,0.650757 0.929668,1.022606 1.766355,1.022606 1.069101,0 1.952196,-0.929771 1.952196,-1.952389 0,-0.371863 -0.0929,-0.650668 -0.232348,-0.883081 l -3.068014,-5.810274 c -0.743722,-1.440962 -2.184673,-2.324264 -3.811568,-2.324264 z" />
    <circle
       r="4.216774"
       cy="7.9731159"
       cx="20.390099"
       id="path831"
       style="display:inline;fill:#000000;fill-opacity:1;fill-rule:nonzero;stroke:none;stroke-width:0;stroke-miterlimit:4;stroke-dasharray:none;stroke-opacity:1" />
  </g>
</svg>
