<?xml version="1.0" encoding="UTF-8" standalone="no"?>
<!-- Created with Inkscape (http://www.inkscape.org/) -->

<svg
   width="200"
   height="200"
   viewBox="0 0 52.916666 52.916666"
   version="1.1"
   id="svg8181"
   inkscape:version="1.1.2 (0a00cf5339, 2022-02-04, custom)"
   sodipodi:docname="load.svg"
   xmlns:inkscape="http://www.inkscape.org/namespaces/inkscape"
   xmlns:sodipodi="http://sodipodi.sourceforge.net/DTD/sodipodi-0.dtd"
   xmlns="http://www.w3.org/2000/svg"
   xmlns:svg="http://www.w3.org/2000/svg">
  <sodipodi:namedview
     id="namedview8183"
     pagecolor="#ffffff"
     bordercolor="#666666"
     borderopacity="1.0"
     inkscape:pageshadow="2"
     inkscape:pageopacity="0.0"
     inkscape:pagecheckerboard="0"
     inkscape:document-units="mm"
     showgrid="false"
     units="px"
     inkscape:zoom="0.77504209"
     inkscape:cx="307.72522"
     inkscape:cy="104.51045"
     inkscape:window-width="1920"
     inkscape:window-height="1029"
     inkscape:window-x="0"
     inkscape:window-y="27"
     inkscape:window-maximized="1"
     inkscape:current-layer="layer1" />
  <defs
     id="defs8178">
    <marker
       style="overflow:visible"
       id="Arrow2Send-3-6"
       refX="0"
       refY="0"
       orient="auto"
       inkscape:stockid="Arrow2Send"
       inkscape:isstock="true">
      <path
         transform="matrix(-0.3,0,0,-0.3,0.69,0)"
         d="M 8.7185878,4.0337352 -2.2072895,0.01601326 8.7185884,-4.0017078 c -1.7454984,2.3720609 -1.7354408,5.6174519 -6e-7,8.035443 z"
         style="fill:context-stroke;fill-rule:evenodd;stroke:context-stroke;stroke-width:0.625;stroke-linejoin:round"
         id="path1619-3-2" />
    </marker>
  </defs>
  <g
     inkscape:label="Vrstva 1"
     inkscape:groupmode="layer"
     id="layer1">
    <g
       id="path6638-6">
      <path
         style="color:#000000;fill:#000000;-inkscape-stroke:none"
         d="m 23.451172,14.359375 v 24.96875 h 5.292969 v -24.96875 z"
         id="path8418" />
      <g
         id="g8408">
        <g
           id="path8410">
          <path
             style="color:#000000;fill:#000000;fill-rule:evenodd;stroke-width:0.992188;stroke-linejoin:round;-inkscape-stroke:none"
             d="M 19.694194,24.549354 26.072331,7.2045136 32.450467,24.549355 c -3.765649,-2.77098 -8.91771,-2.755014 -12.756273,-10e-7 z"
             id="path8414" />
          <path
             style="color:#000000;fill:#000000;fill-rule:evenodd;stroke-linejoin:round;-inkscape-stroke:none"
             d="M 26.072266,6.7089844 A 0.4961436,0.4961436 0 0 0 25.607422,7.0332031 L 19.228516,24.378906 a 0.4961436,0.4961436 0 0 0 0.755859,0.574219 c 3.668465,-2.63293 8.580942,-2.64632 12.171875,-0.0039 a 0.4961436,0.4961436 0 0 0 0.759766,-0.570313 L 26.537109,7.0332031 A 0.4961436,0.4961436 0 0 0 26.072266,6.7089844 Z m 0,1.9296875 5.478515,14.9003901 c -3.409459,-1.915564 -7.509527,-1.90414 -10.960937,0.0098 z"
             id="path8416" />
        </g>
      </g>
    </g>
    <path
       style="color:#000000;fill:#000000;stroke-width:0.643088;-inkscape-stroke:none"
       d="m 16.201299,31.86 c -7.7615002,1.853216 -11.5656842,5.65151 -9.2460942,9.231648 2.31959,3.580138 10.2057602,6.082274 19.1679692,6.082274 8.962208,0 16.848378,-2.502136 19.167968,-6.082274 C 47.610735,37.51151 43.806549,33.713216 36.045049,31.86 l -3.96875,2.843241 c 4.683472,1.118274 6.948523,3.378326 5.548828,5.538666 -1.399695,2.160339 -6.093946,3.649364 -11.501953,3.649364 -5.408008,0 -10.100305,-1.489025 -11.5,-3.649364 -1.399696,-2.16034 0.863403,-4.420392 5.546875,-5.538666 z"
       id="path6822-7" />
  </g>
</svg>
