<?xml version="1.0" encoding="UTF-8" standalone="no"?>
<!-- Created with Inkscape (http://www.inkscape.org/) -->

<svg
   width="200"
   height="200"
   viewBox="0 0 52.916666 52.916666"
   version="1.1"
   id="svg8181"
   inkscape:version="1.1.2 (0a00cf5339, 2022-02-04, custom)"
   sodipodi:docname="restart.svg"
   xmlns:inkscape="http://www.inkscape.org/namespaces/inkscape"
   xmlns:sodipodi="http://sodipodi.sourceforge.net/DTD/sodipodi-0.dtd"
   xmlns="http://www.w3.org/2000/svg"
   xmlns:svg="http://www.w3.org/2000/svg">
  <sodipodi:namedview
     id="namedview8183"
     pagecolor="#ffffff"
     bordercolor="#666666"
     borderopacity="1.0"
     inkscape:pageshadow="2"
     inkscape:pageopacity="0.0"
     inkscape:pagecheckerboard="0"
     inkscape:document-units="mm"
     showgrid="false"
     units="px"
     inkscape:zoom="1.0979195"
     inkscape:cx="109.75304"
     inkscape:cy="100.1895"
     inkscape:window-width="1920"
     inkscape:window-height="1029"
     inkscape:window-x="0"
     inkscape:window-y="27"
     inkscape:window-maximized="1"
     inkscape:current-layer="layer1" />
  <defs
     id="defs8178">
    <marker
       style="overflow:visible"
       id="Arrow2Send-3-6"
       refX="0"
       refY="0"
       orient="auto"
       inkscape:stockid="Arrow2Send"
       inkscape:isstock="true">
      <path
         transform="matrix(-0.3,0,0,-0.3,0.69,0)"
         d="M 8.7185878,4.0337352 -2.2072895,0.01601326 8.7185884,-4.0017078 c -1.7454984,2.3720609 -1.7354408,5.6174519 -6e-7,8.035443 z"
         style="fill:context-stroke;fill-rule:evenodd;stroke:context-stroke;stroke-width:0.625;stroke-linejoin:round"
         id="path1619-3-2" />
    </marker>
    <marker
       style="overflow:visible"
       id="Arrow2Send-3"
       refX="0"
       refY="0"
       orient="auto"
       inkscape:stockid="Arrow2Send"
       inkscape:isstock="true">
      <path
         transform="matrix(-0.3,0,0,-0.3,0.69,0)"
         d="M 8.7185878,4.0337352 -2.2072895,0.01601326 8.7185884,-4.0017078 c -1.7454984,2.3720609 -1.7354408,5.6174519 -6e-7,8.035443 z"
         style="fill:context-stroke;fill-rule:evenodd;stroke:context-stroke;stroke-width:0.625;stroke-linejoin:round"
         id="path1619-3" />
    </marker>
  </defs>
  <g
     inkscape:label="Vrstva 1"
     inkscape:groupmode="layer"
     id="layer1">
    <g
       id="path3951">
      <path
         style="color:#000000;fill:#000000;-inkscape-stroke:none"
         d="M 28.820312,8.21875 C 23.050959,7.6080345 17.178742,9.7344881 13.134766,14.195313 l 3.919921,3.552734 c 3.863543,-4.261792 10.008042,-5.538824 15.25,-3.169922 5.241959,2.368901 8.342815,7.824977 7.697266,13.541016 -0.641357,5.678917 -5.295984,11.022446 -10.222656,11.439453 -4.091886,0.346348 -7.30687,-1.011532 -9.826172,-2.679688 -1.259651,-0.834078 -2.322755,-1.741433 -3.173828,-2.535156 -0.851073,-0.793723 -1.365756,-1.391256 -2.083984,-1.982422 l -3.363282,4.085938 c 0.06201,0.05104 0.859576,0.851412 1.839844,1.765625 0.980268,0.914212 2.26709,2.023793 3.859375,3.078125 3.18457,2.108662 7.684008,4.005554 13.195312,3.539062 C 38.329318,44.14424 44.354644,36.72732 45.259766,28.712891 46.160695,20.73558 41.79811,13.061903 34.482422,9.7558594 32.6535,8.9293481 30.74343,8.4223218 28.820312,8.21875 Z"
         id="path9601" />
      <g
         id="g9591">
        <g
           id="path9593">
          <path
             style="color:#000000;fill:#000000;fill-rule:evenodd;stroke-width:0.992188;stroke-linejoin:round;-inkscape-stroke:none"
             d="M 16.810865,45.824376 7.4723018,29.877108 24.917537,35.975297 c -4.532553,1.146475 -7.794384,5.134513 -8.106672,9.849079 z"
             id="path9597" />
          <path
             style="color:#000000;fill:#000000;fill-rule:evenodd;stroke-linejoin:round;-inkscape-stroke:none"
             d="m 7.6367187,29.408203 a 0.4961436,0.4961436 0 0 0 -0.5917968,0.71875 l 9.3378901,15.947266 a 0.4961436,0.4961436 0 0 0 0.923829,-0.216797 c 0.298449,-4.50565 3.410167,-8.307109 7.732421,-9.400391 a 0.4961436,0.4961436 0 0 0 0.04297,-0.949219 z m 0.9453126,1.382813 14.9843747,5.236328 c -3.647093,1.414906 -6.241657,4.588305 -6.957031,8.470703 z"
             id="path9599" />
        </g>
      </g>
    </g>
  </g>
</svg>
